<svg width="400" height="52" viewBox="0 0 400 52" fill="none" xmlns="http://www.w3.org/2000/svg">
<path d="M186.776 39.7407C191.353 39.7556 195.78 38.119 199.23 35.1359C202.68 32.1528 204.919 28.027 205.528 23.5277C206.138 19.0285 205.076 14.4631 202.542 10.6828C200.007 6.90257 196.173 4.16555 191.754 2.98218C187.335 1.79881 182.633 2.24987 178.525 4.25126C174.416 6.25265 171.182 9.66772 169.425 13.8596C167.668 18.0515 167.509 22.7341 168.976 27.0341C170.444 31.3341 173.438 34.958 177.401 37.23C180.251 38.8655 183.483 39.7312 186.776 39.7407V39.7407ZM191.307 37.7354C187.922 38.6416 184.34 38.504 181.035 37.341C182.665 36.9359 184.191 36.198 185.516 35.1747C186.999 34.0764 188.36 32.8251 189.577 31.442C191.879 32.2631 194.299 32.715 196.746 32.7807C197.841 32.7947 198.932 32.6353 199.977 32.3085C197.708 34.9463 194.685 36.8387 191.307 37.7354V37.7354ZM201.87 29.6978C201.59 30.1829 201.288 30.6495 200.963 31.0976C198.79 32.4807 194.746 32.3529 190.114 30.8643C191.605 29.1113 192.932 27.2279 194.08 25.2374C196.522 21.0436 198.09 16.6721 198.51 12.9338C198.736 11.2794 198.616 9.5964 198.157 7.99012C201.225 10.6152 203.275 14.219 203.952 18.1812C204.63 22.1434 203.894 26.216 201.87 29.6978V29.6978ZM186.832 3.82411C189.876 3.82369 192.867 4.61878 195.502 6.12931C195.982 6.40337 196.448 6.70187 196.897 7.02361C197.737 8.3234 198.051 10.3175 197.782 12.8616C197.39 16.5054 195.861 20.7714 193.469 24.893C192.29 26.9264 190.921 28.8456 189.381 30.6254C187.153 29.8366 185.003 28.8475 182.957 27.6704C175.631 23.4821 170.786 17.7552 170.977 13.9225C171.206 13.4226 171.458 12.9282 171.738 12.445C173.269 9.8202 175.471 7.64159 178.12 6.12826C180.77 4.61493 183.775 3.82024 186.832 3.82411V3.82411ZM170.03 25.5374C169.117 22.1862 169.254 18.639 170.422 15.3667C171.223 19.3383 175.827 24.4042 182.604 28.2869C184.603 29.435 186.7 30.4071 188.871 31.192C187.744 32.4545 186.489 33.5975 185.124 34.6026C183.035 36.1135 181.131 36.8245 179.579 36.7634C179.081 36.5356 178.588 36.2912 178.106 36.0135C176.125 34.8844 174.389 33.3773 172.998 31.5793C171.607 29.7812 170.589 27.7277 170.002 25.5374H170.03ZM206.911 32.5751C204.961 35.9166 202.195 38.7177 198.867 40.7203C195.54 42.723 191.757 43.8627 187.868 44.0344V47.0117H195.861C195.992 47.0117 196.123 47.0375 196.244 47.0874C196.366 47.1374 196.476 47.2106 196.57 47.303C196.663 47.3953 196.736 47.5049 196.787 47.6255C196.837 47.7462 196.863 47.8755 196.863 48.006V50.0002C196.863 50.2644 196.758 50.5179 196.57 50.7052C196.382 50.8925 196.127 50.9985 195.861 51H177.753C177.487 50.9985 177.231 50.8927 177.042 50.7055C176.853 50.5184 176.747 50.2649 176.745 50.0002V48.006C176.747 47.7418 176.854 47.4889 177.043 47.3026C177.231 47.1163 177.487 47.0117 177.753 47.0117H185.74V44.04C182.033 43.8806 178.42 42.8385 175.205 41.0016C174.961 40.8609 174.783 40.6297 174.71 40.3588C174.638 40.088 174.677 39.7997 174.819 39.5574C174.961 39.315 175.194 39.1385 175.467 39.0666C175.74 38.9947 176.03 39.0334 176.275 39.1741C181.114 41.9444 186.865 42.6946 192.262 41.2597C197.66 39.8247 202.261 36.3222 205.054 31.5225C207.848 26.7229 208.604 21.0193 207.157 15.6665C205.71 10.3137 202.179 5.75014 197.339 2.9798C197.215 2.91206 197.106 2.82047 197.018 2.71039C196.93 2.60031 196.866 2.47395 196.828 2.33871C196.79 2.20348 196.779 2.06208 196.797 1.9228C196.815 1.78352 196.86 1.64916 196.931 1.52759C197.002 1.40601 197.096 1.29967 197.209 1.21478C197.322 1.12989 197.451 1.06817 197.588 1.03322C197.725 0.998275 197.868 0.990807 198.008 1.01126C198.148 1.03171 198.282 1.07966 198.403 1.15231C203.727 4.2058 207.612 9.22868 209.207 15.1193C210.802 21.01 209.976 27.2875 206.911 32.5751V32.5751Z" fill="#FF0000" stroke="#FF0000"/>
<path d="M4.4617 19.8085C6.45319 19.8085 7.99787 20.3574 9.09574 21.4553C10.1936 22.5532 10.7426 24.1106 10.7426 26.1276C10.7426 28.1447 10.1936 29.7021 9.09574 30.8C7.99787 31.8979 6.45319 32.4468 4.4617 32.4468H0V19.8085H4.4617ZM4.4617 30.7042C5.78936 30.7042 6.81064 30.3085 7.52553 29.517C8.24043 28.7127 8.59787 27.583 8.59787 26.1276C8.59787 24.6723 8.24043 23.5489 7.52553 22.7574C6.81064 21.9532 5.78936 21.551 4.4617 21.551H2.04894V30.7042H4.4617Z" fill="#FF0000"/>
<path d="M21.5756 32.4468H19.5267V19.8085H21.5756V32.4468Z" fill="#FF0000"/>
<path d="M35.3769 19.617C36.5386 19.617 37.528 19.8276 38.345 20.2489C39.1748 20.6702 39.8705 21.3149 40.4322 22.183L38.8812 23.5808C38.5237 22.8149 38.0769 22.2596 37.5407 21.9149C37.0046 21.5702 36.2897 21.3979 35.3961 21.3979C34.5152 21.3979 33.8322 21.5766 33.3471 21.934C32.862 22.2787 32.6195 22.7255 32.6195 23.2745C32.6195 23.7851 32.8556 24.1936 33.328 24.5C33.8003 24.7936 34.6429 25.0489 35.8556 25.2659C36.9918 25.4702 37.8918 25.7319 38.5556 26.051C39.2322 26.3574 39.7237 26.7468 40.0301 27.2191C40.3365 27.6787 40.4897 28.2532 40.4897 28.9425C40.4897 29.683 40.279 30.334 39.8578 30.8957C39.4365 31.4574 38.8429 31.8915 38.0769 32.1979C37.3237 32.4915 36.4493 32.6383 35.4535 32.6383C32.8876 32.6383 31.0748 31.783 30.0152 30.0723L31.4514 28.6362C31.8599 29.4021 32.3833 29.9638 33.0216 30.3213C33.6727 30.6787 34.4769 30.8574 35.4344 30.8574C36.3407 30.8574 37.0493 30.7042 37.5599 30.3979C38.0833 30.0787 38.345 29.6319 38.345 29.0574C38.345 28.5979 38.1088 28.2276 37.6365 27.9468C37.1769 27.6659 36.3663 27.417 35.2046 27.2C34.0429 26.983 33.1173 26.7149 32.428 26.3957C31.7386 26.0766 31.2344 25.6808 30.9152 25.2085C30.6088 24.7362 30.4556 24.1617 30.4556 23.4851C30.4556 22.7702 30.6535 22.1191 31.0493 21.5319C31.445 20.9447 32.0131 20.4787 32.7535 20.134C33.5067 19.7893 34.3812 19.617 35.3769 19.617Z" fill="#FF0000"/>
<path d="M59.5735 29.0957C59.1906 30.2319 58.5331 31.1064 57.6012 31.7191C56.682 32.3319 55.5969 32.6383 54.3459 32.6383C53.1331 32.6383 52.0799 32.3766 51.1863 31.8532C50.2927 31.3298 49.6033 30.5766 49.1182 29.5936C48.6331 28.6106 48.3906 27.4553 48.3906 26.1276C48.3906 24.8 48.6331 23.6447 49.1182 22.6617C49.6033 21.6787 50.2927 20.9255 51.1863 20.4021C52.0799 19.8787 53.1267 19.617 54.3267 19.617C55.5906 19.617 56.6501 19.8787 57.5055 20.4021C58.3735 20.9255 58.9991 21.6979 59.382 22.7191L57.448 23.5808C57.1927 22.8276 56.8225 22.2787 56.3374 21.934C55.8523 21.5766 55.2203 21.3979 54.4416 21.3979C53.2544 21.3979 52.3033 21.8191 51.5884 22.6617C50.8863 23.4915 50.5352 24.6468 50.5352 26.1276C50.5352 27.6213 50.8735 28.783 51.5501 29.6127C52.2267 30.4425 53.165 30.8574 54.365 30.8574C55.182 30.8574 55.865 30.6532 56.414 30.2447C56.9757 29.8362 57.3778 29.2362 57.6203 28.4447L59.5735 29.0957Z" fill="#FF0000"/>
<path d="M73.1806 19.617C74.3934 19.617 75.4466 19.8787 76.3402 20.4021C77.2466 20.9255 77.9424 21.6787 78.4275 22.6617C78.9126 23.6447 79.1551 24.8 79.1551 26.1276C79.1551 27.4553 78.9126 28.6106 78.4275 29.5936C77.9424 30.5766 77.2466 31.3298 76.3402 31.8532C75.4466 32.3766 74.3934 32.6383 73.1806 32.6383C71.9679 32.6383 70.9147 32.3766 70.0211 31.8532C69.1275 31.3298 68.4381 30.5766 67.953 29.5936C67.4679 28.6106 67.2253 27.4553 67.2253 26.1276C67.2253 24.8 67.4679 23.6447 67.953 22.6617C68.4381 21.6787 69.1275 20.9255 70.0211 20.4021C70.9147 19.8787 71.9679 19.617 73.1806 19.617ZM73.1806 21.3979C71.9934 21.3979 71.0615 21.8127 70.3849 22.6425C69.7083 23.4723 69.37 24.634 69.37 26.1276C69.37 27.6213 69.7083 28.783 70.3849 29.6127C71.0615 30.4425 71.9934 30.8574 73.1806 30.8574C74.3806 30.8574 75.319 30.4425 75.9955 29.6127C76.6721 28.783 77.0104 27.6213 77.0104 26.1276C77.0104 24.634 76.6721 23.4723 75.9955 22.6425C75.319 21.8127 74.3806 21.3979 73.1806 21.3979Z" fill="#FF0000"/>
<path d="M93.2586 32.4468H90.865L86.1735 19.8085H88.3565L91.3054 28.2149L92.0714 30.7234L92.8373 28.234L95.7863 19.8085H97.9501L93.2586 32.4468Z" fill="#FF0000"/>
<path d="M115.417 30.6851V32.4468H105.996V19.8085H115.149V21.5702H108.045V25.2085H113.598V26.9319H108.045V30.6851H115.417Z" fill="#FF0000"/>
<path d="M128.663 27.3915H125.944V32.4468H123.915V19.8085H129.066C130.432 19.8085 131.51 20.1468 132.302 20.8234C133.093 21.4872 133.489 22.4127 133.489 23.6C133.489 24.5064 133.253 25.2659 132.781 25.8787C132.321 26.4787 131.664 26.9064 130.808 27.1617L134.236 32.4468H131.881L128.663 27.3915ZM125.944 25.6872H128.893C129.723 25.6872 130.342 25.5213 130.751 25.1893C131.159 24.8447 131.363 24.3213 131.363 23.6191C131.363 22.917 131.159 22.4 130.751 22.0681C130.342 21.7234 129.723 21.551 128.893 21.551H125.944V25.6872Z" fill="#FF0000"/>
<path d="M251.662 21.5702H247.334V32.4468H245.285V21.5702H240.958V19.8085H251.662V21.5702Z" fill="#FF0000"/>
<path d="M270.22 19.8085V32.4468H268.152V26.9319H261.909V32.4468H259.86V19.8085H261.909V25.1702H268.152V19.8085H270.22Z" fill="#FF0000"/>
<path d="M289.126 30.6851V32.4468H279.705V19.8085H288.858V21.5702H281.754V25.2085H287.307V26.9319H281.754V30.6851H289.126Z" fill="#FF0000"/>
<path d="M313.971 32.4468H311.539L307.825 19.8085H310.046L312.803 30.8191L315.58 19.8085H317.686L320.482 30.8383L323.259 19.8085H325.365L321.669 32.4468H319.256L317.246 24.8638L316.614 21.9532H316.595L315.963 24.8638L313.971 32.4468Z" fill="#FF0000"/>
<path d="M338.576 19.617C339.789 19.617 340.842 19.8787 341.736 20.4021C342.642 20.9255 343.338 21.6787 343.823 22.6617C344.308 23.6447 344.551 24.8 344.551 26.1276C344.551 27.4553 344.308 28.6106 343.823 29.5936C343.338 30.5766 342.642 31.3298 341.736 31.8532C340.842 32.3766 339.789 32.6383 338.576 32.6383C337.363 32.6383 336.31 32.3766 335.417 31.8532C334.523 31.3298 333.834 30.5766 333.348 29.5936C332.863 28.6106 332.621 27.4553 332.621 26.1276C332.621 24.8 332.863 23.6447 333.348 22.6617C333.834 21.6787 334.523 20.9255 335.417 20.4021C336.31 19.8787 337.363 19.617 338.576 19.617ZM338.576 21.3979C337.389 21.3979 336.457 21.8127 335.78 22.6425C335.104 23.4723 334.765 24.634 334.765 26.1276C334.765 27.6213 335.104 28.783 335.78 29.6127C336.457 30.4425 337.389 30.8574 338.576 30.8574C339.776 30.8574 340.714 30.4425 341.391 29.6127C342.068 28.783 342.406 27.6213 342.406 26.1276C342.406 24.634 342.068 23.4723 341.391 22.6425C340.714 21.8127 339.776 21.3979 338.576 21.3979Z" fill="#FF0000"/>
<path d="M358.091 27.3915H355.372V32.4468H353.342V19.8085H358.493C359.859 19.8085 360.938 20.1468 361.729 20.8234C362.521 21.4872 362.917 22.4127 362.917 23.6C362.917 24.5064 362.68 25.2659 362.208 25.8787C361.749 26.4787 361.091 26.9064 360.236 27.1617L363.663 32.4468H361.308L358.091 27.3915ZM355.372 25.6872H358.321C359.151 25.6872 359.77 25.5213 360.178 25.1893C360.587 24.8447 360.791 24.3213 360.791 23.6191C360.791 22.917 360.587 22.4 360.178 22.0681C359.77 21.7234 359.151 21.551 358.321 21.551H355.372V25.6872Z" fill="#FF0000"/>
<path d="M380.972 30.6851V32.4468H371.953V19.8085H374.001V30.6851H380.972Z" fill="#FF0000"/>
<path d="M393.622 19.8085C395.614 19.8085 397.158 20.3574 398.256 21.4553C399.354 22.5532 399.903 24.1106 399.903 26.1276C399.903 28.1447 399.354 29.7021 398.256 30.8C397.158 31.8979 395.614 32.4468 393.622 32.4468H389.16V19.8085H393.622ZM393.622 30.7042C394.95 30.7042 395.971 30.3085 396.686 29.517C397.401 28.7127 397.758 27.583 397.758 26.1276C397.758 24.6723 397.401 23.5489 396.686 22.7574C395.971 21.9532 394.95 21.551 393.622 21.551H391.209V30.7042H393.622Z" fill="#FF0000"/>
</svg>
